<svg xmlns="http://www.w3.org/2000/svg" xmlns:xlink="http://www.w3.org/1999/xlink" width="2000" zoomAndPan="magnify" viewBox="0 0 1500 1499.999933" height="2000" preserveAspectRatio="xMidYMid meet" version="1.0"><defs><g/><clipPath id="4349713b29"><rect x="0" width="865" y="0" height="30"/></clipPath></defs><rect x="-150" width="1800" fill="#ffffff" y="-149.999993" height="1799.99992" fill-opacity="1"/><rect x="-150" width="1800" fill="#e2e2e2" y="-149.999993" height="1799.99992" fill-opacity="1"/><g fill="#000000" fill-opacity="1"><g transform="translate(299.710888, 779.746497)"><g><path d="M 5.609375 0 L 64.796875 -50.40625 L 5.609375 -100.796875 L 37.875 -100.796875 L 79.921875 -64.65625 L 121.96875 -100.796875 L 154.21875 -100.796875 L 95.046875 -50.40625 L 154.21875 0 L 121.96875 0 L 79.921875 -36.140625 L 37.875 0 Z M 5.609375 0 "/></g></g></g><g fill="#000000" fill-opacity="1"><g transform="translate(454.942807, 779.746497)"><g><path d="M 72.140625 1.4375 C 58.410156 1.4375 46.550781 0.453125 36.5625 -1.515625 C 26.582031 -3.484375 18.925781 -7.082031 13.59375 -12.3125 C 8.269531 -17.539062 5.609375 -24.957031 5.609375 -34.5625 L 28.375 -34.5625 C 28.375 -30.53125 29.691406 -27.191406 32.328125 -24.546875 C 34.960938 -21.910156 39.566406 -19.96875 46.140625 -18.71875 C 52.722656 -17.46875 61.867188 -16.84375 73.578125 -16.84375 C 83.085938 -16.84375 90.601562 -17.273438 96.125 -18.140625 C 101.644531 -19.003906 105.601562 -20.347656 108 -22.171875 C 110.394531 -23.992188 111.59375 -26.394531 111.59375 -29.375 C 111.59375 -31.769531 111.066406 -33.710938 110.015625 -35.203125 C 108.960938 -36.691406 106.945312 -37.867188 103.96875 -38.734375 C 100.988281 -39.597656 96.785156 -40.289062 91.359375 -40.8125 C 85.941406 -41.34375 78.816406 -41.851562 69.984375 -42.34375 C 55.585938 -43.101562 43.921875 -44.488281 34.984375 -46.5 C 26.054688 -48.519531 19.53125 -51.691406 15.40625 -56.015625 C 11.28125 -60.335938 9.21875 -66.242188 9.21875 -73.734375 C 9.21875 -81.117188 11.640625 -86.875 16.484375 -91 C 21.335938 -95.132812 28.226562 -98.039062 37.15625 -99.71875 C 46.082031 -101.394531 56.738281 -102.234375 69.125 -102.234375 C 81.695312 -102.234375 92.539062 -101.101562 101.65625 -98.84375 C 110.78125 -96.59375 117.789062 -92.945312 122.6875 -87.90625 C 127.582031 -82.875 130.03125 -76.226562 130.03125 -67.96875 L 107.28125 -67.96875 C 107.28125 -72.1875 105.882812 -75.445312 103.09375 -77.75 C 100.3125 -80.0625 95.921875 -81.671875 89.921875 -82.578125 C 83.921875 -83.492188 76.023438 -83.953125 66.234375 -83.953125 C 57.117188 -83.953125 50.0625 -83.59375 45.0625 -82.875 C 40.070312 -82.15625 36.640625 -80.953125 34.765625 -79.265625 C 32.898438 -77.585938 31.96875 -75.359375 31.96875 -72.578125 C 31.96875 -70.367188 32.492188 -68.539062 33.546875 -67.09375 C 34.609375 -65.65625 36.503906 -64.503906 39.234375 -63.640625 C 41.972656 -62.785156 45.835938 -62.066406 50.828125 -61.484375 C 55.816406 -60.910156 62.203125 -60.382812 69.984375 -59.90625 C 79.960938 -59.332031 88.910156 -58.632812 96.828125 -57.8125 C 104.753906 -57 111.5 -55.628906 117.0625 -53.703125 C 122.632812 -51.785156 126.910156 -48.976562 129.890625 -45.28125 C 132.867188 -41.59375 134.359375 -36.578125 134.359375 -30.234375 C 134.359375 -23.515625 132.820312 -18.066406 129.75 -13.890625 C 126.675781 -9.710938 122.351562 -6.519531 116.78125 -4.3125 C 111.21875 -2.113281 104.644531 -0.609375 97.0625 0.203125 C 89.476562 1.023438 81.171875 1.4375 72.140625 1.4375 Z M 72.140625 1.4375 "/></g></g></g><g fill="#000000" fill-opacity="1"><g transform="translate(590.30272, 779.746497)"><g><path d="M 7.0625 0 L 7.0625 -100.796875 L 39.03125 -100.796875 L 84.234375 -26.359375 L 129.453125 -100.796875 L 161.421875 -100.796875 L 161.421875 0 L 138.671875 0 L 138.671875 -73.875 L 92.875 0 L 75.75 0 L 29.8125 -73.875 L 29.8125 0 Z M 7.0625 0 "/></g></g></g><g fill="#000000" fill-opacity="1"><g transform="translate(754.174639, 779.746497)"><g><path d="M 7.0625 0 L 7.0625 -100.796875 L 29.8125 -100.796875 L 29.8125 0 Z M 7.0625 0 "/></g></g></g><g fill="#000000" fill-opacity="1"><g transform="translate(786.430633, 779.746497)"><g><path d="M 56.15625 0 L 56.15625 -81.640625 L 5.609375 -81.640625 L 5.609375 -100.796875 L 129.453125 -100.796875 L 129.453125 -81.640625 L 78.90625 -81.640625 L 78.90625 0 Z M 56.15625 0 "/></g></g></g><g fill="#000000" fill-opacity="1"><g transform="translate(916.894547, 779.746497)"><g><path d="M 7.0625 0 L 7.0625 -100.796875 L 29.8125 -100.796875 L 29.8125 -59.90625 L 118.21875 -59.90625 L 118.21875 -100.796875 L 140.96875 -100.796875 L 140.96875 0 L 118.21875 0 L 118.21875 -40.890625 L 29.8125 -40.890625 L 29.8125 0 Z M 7.0625 0 "/></g></g></g><g fill="#000000" fill-opacity="1"><g transform="translate(1060.318482, 779.746497)"><g><path d="M 72.140625 1.4375 C 58.410156 1.4375 46.550781 0.453125 36.5625 -1.515625 C 26.582031 -3.484375 18.925781 -7.082031 13.59375 -12.3125 C 8.269531 -17.539062 5.609375 -24.957031 5.609375 -34.5625 L 28.375 -34.5625 C 28.375 -30.53125 29.691406 -27.191406 32.328125 -24.546875 C 34.960938 -21.910156 39.566406 -19.96875 46.140625 -18.71875 C 52.722656 -17.46875 61.867188 -16.84375 73.578125 -16.84375 C 83.085938 -16.84375 90.601562 -17.273438 96.125 -18.140625 C 101.644531 -19.003906 105.601562 -20.347656 108 -22.171875 C 110.394531 -23.992188 111.59375 -26.394531 111.59375 -29.375 C 111.59375 -31.769531 111.066406 -33.710938 110.015625 -35.203125 C 108.960938 -36.691406 106.945312 -37.867188 103.96875 -38.734375 C 100.988281 -39.597656 96.785156 -40.289062 91.359375 -40.8125 C 85.941406 -41.34375 78.816406 -41.851562 69.984375 -42.34375 C 55.585938 -43.101562 43.921875 -44.488281 34.984375 -46.5 C 26.054688 -48.519531 19.53125 -51.691406 15.40625 -56.015625 C 11.28125 -60.335938 9.21875 -66.242188 9.21875 -73.734375 C 9.21875 -81.117188 11.640625 -86.875 16.484375 -91 C 21.335938 -95.132812 28.226562 -98.039062 37.15625 -99.71875 C 46.082031 -101.394531 56.738281 -102.234375 69.125 -102.234375 C 81.695312 -102.234375 92.539062 -101.101562 101.65625 -98.84375 C 110.78125 -96.59375 117.789062 -92.945312 122.6875 -87.90625 C 127.582031 -82.875 130.03125 -76.226562 130.03125 -67.96875 L 107.28125 -67.96875 C 107.28125 -72.1875 105.882812 -75.445312 103.09375 -77.75 C 100.3125 -80.0625 95.921875 -81.671875 89.921875 -82.578125 C 83.921875 -83.492188 76.023438 -83.953125 66.234375 -83.953125 C 57.117188 -83.953125 50.0625 -83.59375 45.0625 -82.875 C 40.070312 -82.15625 36.640625 -80.953125 34.765625 -79.265625 C 32.898438 -77.585938 31.96875 -75.359375 31.96875 -72.578125 C 31.96875 -70.367188 32.492188 -68.539062 33.546875 -67.09375 C 34.609375 -65.65625 36.503906 -64.503906 39.234375 -63.640625 C 41.972656 -62.785156 45.835938 -62.066406 50.828125 -61.484375 C 55.816406 -60.910156 62.203125 -60.382812 69.984375 -59.90625 C 79.960938 -59.332031 88.910156 -58.632812 96.828125 -57.8125 C 104.753906 -57 111.5 -55.628906 117.0625 -53.703125 C 122.632812 -51.785156 126.910156 -48.976562 129.890625 -45.28125 C 132.867188 -41.59375 134.359375 -36.578125 134.359375 -30.234375 C 134.359375 -23.515625 132.820312 -18.066406 129.75 -13.890625 C 126.675781 -9.710938 122.351562 -6.519531 116.78125 -4.3125 C 111.21875 -2.113281 104.644531 -0.609375 97.0625 0.203125 C 89.476562 1.023438 81.171875 1.4375 72.140625 1.4375 Z M 72.140625 1.4375 "/></g></g></g><g transform="matrix(1, 0, 0, 1, 320, 821)"><g clip-path="url(#4349713b29)"><g fill="#0a0a0a" fill-opacity="1"><g transform="translate(1.314464, 21.825847)"><g><path d="M 4.65625 -13.53125 L 4.65625 -8.453125 L 10.25 -8.453125 L 10.25 -6.890625 L 4.65625 -6.890625 L 4.65625 -1.53125 L 11.515625 -1.53125 L 11.515625 0 L 2.75 0 L 2.75 -15.09375 L 11.328125 -15.09375 L 11.109375 -13.53125 Z M 4.65625 -13.53125 "/></g></g></g><g fill="#0a0a0a" fill-opacity="1"><g transform="translate(25.976181, 21.825847)"><g><path d="M 8.65625 0 L 3.34375 -13.28125 C 3.351562 -13.101562 3.367188 -12.816406 3.390625 -12.421875 C 3.421875 -12.035156 3.453125 -11.570312 3.484375 -11.03125 C 3.515625 -10.5 3.539062 -9.929688 3.5625 -9.328125 C 3.582031 -8.734375 3.59375 -8.144531 3.59375 -7.5625 L 3.59375 0 L 1.828125 0 L 1.828125 -15.09375 L 4.40625 -15.09375 L 9.8125 -1.765625 C 9.800781 -1.972656 9.773438 -2.359375 9.734375 -2.921875 C 9.691406 -3.492188 9.648438 -4.179688 9.609375 -4.984375 C 9.578125 -5.785156 9.5625 -6.640625 9.5625 -7.546875 L 9.5625 -15.09375 L 11.328125 -15.09375 L 11.328125 0 Z M 8.65625 0 "/></g></g></g><g fill="#0a0a0a" fill-opacity="1"><g transform="translate(50.637897, 21.825847)"><g><path d="M 6.875 0.25 C 5.675781 0.25 4.632812 -0.0351562 3.75 -0.609375 C 2.875 -1.191406 2.195312 -2.054688 1.71875 -3.203125 C 1.238281 -4.359375 1 -5.804688 1 -7.546875 C 1 -8.847656 1.171875 -9.984375 1.515625 -10.953125 C 1.859375 -11.929688 2.328125 -12.742188 2.921875 -13.390625 C 3.523438 -14.046875 4.203125 -14.53125 4.953125 -14.84375 C 5.710938 -15.164062 6.5 -15.328125 7.3125 -15.328125 C 8.300781 -15.328125 9.117188 -15.1875 9.765625 -14.90625 C 10.410156 -14.625 11.03125 -14.210938 11.625 -13.671875 L 10.484375 -12.484375 C 10.015625 -12.910156 9.523438 -13.226562 9.015625 -13.4375 C 8.515625 -13.644531 7.953125 -13.75 7.328125 -13.75 C 6.773438 -13.75 6.242188 -13.640625 5.734375 -13.421875 C 5.222656 -13.210938 4.765625 -12.867188 4.359375 -12.390625 C 3.953125 -11.910156 3.628906 -11.273438 3.390625 -10.484375 C 3.148438 -9.703125 3.03125 -8.722656 3.03125 -7.546875 C 3.03125 -6.097656 3.179688 -4.914062 3.484375 -4 C 3.796875 -3.082031 4.25 -2.410156 4.84375 -1.984375 C 5.4375 -1.554688 6.171875 -1.34375 7.046875 -1.34375 C 7.578125 -1.34375 8.078125 -1.40625 8.546875 -1.53125 C 9.015625 -1.65625 9.472656 -1.835938 9.921875 -2.078125 L 9.921875 -6.671875 L 6.953125 -6.671875 L 6.71875 -8.25 L 11.8125 -8.25 L 11.8125 -1.0625 C 11.125 -0.695312 10.394531 -0.382812 9.625 -0.125 C 8.863281 0.125 7.945312 0.25 6.875 0.25 Z M 6.875 0.25 "/></g></g></g><g fill="#0a0a0a" fill-opacity="1"><g transform="translate(75.299614, 21.825847)"><g><path d="M 10.890625 -15.09375 L 10.890625 -13.5625 L 7.546875 -13.5625 L 7.546875 -1.53125 L 10.890625 -1.53125 L 10.890625 0 L 2.265625 0 L 2.265625 -1.53125 L 5.609375 -1.53125 L 5.609375 -13.5625 L 2.265625 -13.5625 L 2.265625 -15.09375 Z M 10.890625 -15.09375 "/></g></g></g><g fill="#0a0a0a" fill-opacity="1"><g transform="translate(99.961331, 21.825847)"><g><path d="M 8.65625 0 L 3.34375 -13.28125 C 3.351562 -13.101562 3.367188 -12.816406 3.390625 -12.421875 C 3.421875 -12.035156 3.453125 -11.570312 3.484375 -11.03125 C 3.515625 -10.5 3.539062 -9.929688 3.5625 -9.328125 C 3.582031 -8.734375 3.59375 -8.144531 3.59375 -7.5625 L 3.59375 0 L 1.828125 0 L 1.828125 -15.09375 L 4.40625 -15.09375 L 9.8125 -1.765625 C 9.800781 -1.972656 9.773438 -2.359375 9.734375 -2.921875 C 9.691406 -3.492188 9.648438 -4.179688 9.609375 -4.984375 C 9.578125 -5.785156 9.5625 -6.640625 9.5625 -7.546875 L 9.5625 -15.09375 L 11.328125 -15.09375 L 11.328125 0 Z M 8.65625 0 "/></g></g></g><g fill="#0a0a0a" fill-opacity="1"><g transform="translate(124.623047, 21.825847)"><g><path d="M 4.65625 -13.53125 L 4.65625 -8.453125 L 10.25 -8.453125 L 10.25 -6.890625 L 4.65625 -6.890625 L 4.65625 -1.53125 L 11.515625 -1.53125 L 11.515625 0 L 2.75 0 L 2.75 -15.09375 L 11.328125 -15.09375 L 11.109375 -13.53125 Z M 4.65625 -13.53125 "/></g></g></g><g fill="#0a0a0a" fill-opacity="1"><g transform="translate(149.284764, 21.825847)"><g><path d="M 4.65625 -13.53125 L 4.65625 -8.453125 L 10.25 -8.453125 L 10.25 -6.890625 L 4.65625 -6.890625 L 4.65625 -1.53125 L 11.515625 -1.53125 L 11.515625 0 L 2.75 0 L 2.75 -15.09375 L 11.328125 -15.09375 L 11.109375 -13.53125 Z M 4.65625 -13.53125 "/></g></g></g><g fill="#0a0a0a" fill-opacity="1"><g transform="translate(173.946488, 21.825847)"><g><path d="M 11.78125 -10.859375 C 11.78125 -10.109375 11.617188 -9.453125 11.296875 -8.890625 C 10.972656 -8.328125 10.53125 -7.863281 9.96875 -7.5 C 9.414062 -7.132812 8.789062 -6.867188 8.09375 -6.703125 L 12.578125 0 L 10.296875 0 L 6.171875 -6.484375 L 4.125 -6.484375 L 4.125 0 L 2.21875 0 L 2.21875 -15.09375 L 6.109375 -15.09375 C 7.972656 -15.09375 9.382812 -14.734375 10.34375 -14.015625 C 11.300781 -13.304688 11.78125 -12.253906 11.78125 -10.859375 Z M 9.75 -10.859375 C 9.75 -11.828125 9.46875 -12.519531 8.90625 -12.9375 C 8.351562 -13.363281 7.492188 -13.578125 6.328125 -13.578125 L 4.125 -13.578125 L 4.125 -7.96875 L 6.328125 -7.96875 C 7.410156 -7.96875 8.25 -8.1875 8.84375 -8.625 C 9.445312 -9.070312 9.75 -9.816406 9.75 -10.859375 Z M 9.75 -10.859375 "/></g></g></g><g fill="#0a0a0a" fill-opacity="1"><g transform="translate(198.608197, 21.825847)"><g><path d="M 10.890625 -15.09375 L 10.890625 -13.5625 L 7.546875 -13.5625 L 7.546875 -1.53125 L 10.890625 -1.53125 L 10.890625 0 L 2.265625 0 L 2.265625 -1.53125 L 5.609375 -1.53125 L 5.609375 -13.5625 L 2.265625 -13.5625 L 2.265625 -15.09375 Z M 10.890625 -15.09375 "/></g></g></g><g fill="#0a0a0a" fill-opacity="1"><g transform="translate(223.269906, 21.825847)"><g><path d="M 8.65625 0 L 3.34375 -13.28125 C 3.351562 -13.101562 3.367188 -12.816406 3.390625 -12.421875 C 3.421875 -12.035156 3.453125 -11.570312 3.484375 -11.03125 C 3.515625 -10.5 3.539062 -9.929688 3.5625 -9.328125 C 3.582031 -8.734375 3.59375 -8.144531 3.59375 -7.5625 L 3.59375 0 L 1.828125 0 L 1.828125 -15.09375 L 4.40625 -15.09375 L 9.8125 -1.765625 C 9.800781 -1.972656 9.773438 -2.359375 9.734375 -2.921875 C 9.691406 -3.492188 9.648438 -4.179688 9.609375 -4.984375 C 9.578125 -5.785156 9.5625 -6.640625 9.5625 -7.546875 L 9.5625 -15.09375 L 11.328125 -15.09375 L 11.328125 0 Z M 8.65625 0 "/></g></g></g><g fill="#0a0a0a" fill-opacity="1"><g transform="translate(247.931631, 21.825847)"><g><path d="M 6.875 0.25 C 5.675781 0.25 4.632812 -0.0351562 3.75 -0.609375 C 2.875 -1.191406 2.195312 -2.054688 1.71875 -3.203125 C 1.238281 -4.359375 1 -5.804688 1 -7.546875 C 1 -8.847656 1.171875 -9.984375 1.515625 -10.953125 C 1.859375 -11.929688 2.328125 -12.742188 2.921875 -13.390625 C 3.523438 -14.046875 4.203125 -14.53125 4.953125 -14.84375 C 5.710938 -15.164062 6.5 -15.328125 7.3125 -15.328125 C 8.300781 -15.328125 9.117188 -15.1875 9.765625 -14.90625 C 10.410156 -14.625 11.03125 -14.210938 11.625 -13.671875 L 10.484375 -12.484375 C 10.015625 -12.910156 9.523438 -13.226562 9.015625 -13.4375 C 8.515625 -13.644531 7.953125 -13.75 7.328125 -13.75 C 6.773438 -13.75 6.242188 -13.640625 5.734375 -13.421875 C 5.222656 -13.210938 4.765625 -12.867188 4.359375 -12.390625 C 3.953125 -11.910156 3.628906 -11.273438 3.390625 -10.484375 C 3.148438 -9.703125 3.03125 -8.722656 3.03125 -7.546875 C 3.03125 -6.097656 3.179688 -4.914062 3.484375 -4 C 3.796875 -3.082031 4.25 -2.410156 4.84375 -1.984375 C 5.4375 -1.554688 6.171875 -1.34375 7.046875 -1.34375 C 7.578125 -1.34375 8.078125 -1.40625 8.546875 -1.53125 C 9.015625 -1.65625 9.472656 -1.835938 9.921875 -2.078125 L 9.921875 -6.671875 L 6.953125 -6.671875 L 6.71875 -8.25 L 11.8125 -8.25 L 11.8125 -1.0625 C 11.125 -0.695312 10.394531 -0.382812 9.625 -0.125 C 8.863281 0.125 7.945312 0.25 6.875 0.25 Z M 6.875 0.25 "/></g></g></g><g fill="#0a0a0a" fill-opacity="1"><g transform="translate(272.593355, 21.825847)"><g/></g></g><g fill="#0a0a0a" fill-opacity="1"><g transform="translate(297.255064, 21.825847)"><g><path d="M 10.890625 -15.09375 L 10.890625 -13.5625 L 7.546875 -13.5625 L 7.546875 -1.53125 L 10.890625 -1.53125 L 10.890625 0 L 2.265625 0 L 2.265625 -1.53125 L 5.609375 -1.53125 L 5.609375 -13.5625 L 2.265625 -13.5625 L 2.265625 -15.09375 Z M 10.890625 -15.09375 "/></g></g></g><g fill="#0a0a0a" fill-opacity="1"><g transform="translate(321.916774, 21.825847)"><g><path d="M 8.65625 0 L 3.34375 -13.28125 C 3.351562 -13.101562 3.367188 -12.816406 3.390625 -12.421875 C 3.421875 -12.035156 3.453125 -11.570312 3.484375 -11.03125 C 3.515625 -10.5 3.539062 -9.929688 3.5625 -9.328125 C 3.582031 -8.734375 3.59375 -8.144531 3.59375 -7.5625 L 3.59375 0 L 1.828125 0 L 1.828125 -15.09375 L 4.40625 -15.09375 L 9.8125 -1.765625 C 9.800781 -1.972656 9.773438 -2.359375 9.734375 -2.921875 C 9.691406 -3.492188 9.648438 -4.179688 9.609375 -4.984375 C 9.578125 -5.785156 9.5625 -6.640625 9.5625 -7.546875 L 9.5625 -15.09375 L 11.328125 -15.09375 L 11.328125 0 Z M 8.65625 0 "/></g></g></g><g fill="#0a0a0a" fill-opacity="1"><g transform="translate(346.578513, 21.825847)"><g><path d="M 7.484375 -13.453125 L 7.484375 0 L 5.59375 0 L 5.59375 -13.453125 L 0.875 -13.453125 L 0.875 -15.09375 L 12.265625 -15.09375 L 12.0625 -13.453125 Z M 7.484375 -13.453125 "/></g></g></g><g fill="#0a0a0a" fill-opacity="1"><g transform="translate(371.240222, 21.825847)"><g><path d="M 4.65625 -13.53125 L 4.65625 -8.453125 L 10.25 -8.453125 L 10.25 -6.890625 L 4.65625 -6.890625 L 4.65625 -1.53125 L 11.515625 -1.53125 L 11.515625 0 L 2.75 0 L 2.75 -15.09375 L 11.328125 -15.09375 L 11.109375 -13.53125 Z M 4.65625 -13.53125 "/></g></g></g><g fill="#0a0a0a" fill-opacity="1"><g transform="translate(395.901931, 21.825847)"><g><path d="M 11.78125 -10.859375 C 11.78125 -10.109375 11.617188 -9.453125 11.296875 -8.890625 C 10.972656 -8.328125 10.53125 -7.863281 9.96875 -7.5 C 9.414062 -7.132812 8.789062 -6.867188 8.09375 -6.703125 L 12.578125 0 L 10.296875 0 L 6.171875 -6.484375 L 4.125 -6.484375 L 4.125 0 L 2.21875 0 L 2.21875 -15.09375 L 6.109375 -15.09375 C 7.972656 -15.09375 9.382812 -14.734375 10.34375 -14.015625 C 11.300781 -13.304688 11.78125 -12.253906 11.78125 -10.859375 Z M 9.75 -10.859375 C 9.75 -11.828125 9.46875 -12.519531 8.90625 -12.9375 C 8.351562 -13.363281 7.492188 -13.578125 6.328125 -13.578125 L 4.125 -13.578125 L 4.125 -7.96875 L 6.328125 -7.96875 C 7.410156 -7.96875 8.25 -8.1875 8.84375 -8.625 C 9.445312 -9.070312 9.75 -9.816406 9.75 -10.859375 Z M 9.75 -10.859375 "/></g></g></g><g fill="#0a0a0a" fill-opacity="1"><g transform="translate(420.56364, 21.825847)"><g><path d="M 9.5 -3.84375 L 3.53125 -3.84375 L 2.328125 0 L 0.453125 0 L 5.359375 -15.09375 L 7.796875 -15.09375 L 12.703125 0 L 10.703125 0 Z M 4.015625 -5.421875 L 9.015625 -5.421875 L 6.53125 -13.5 Z M 4.015625 -5.421875 "/></g></g></g><g fill="#0a0a0a" fill-opacity="1"><g transform="translate(445.225349, 21.825847)"><g><path d="M 7.84375 -15.328125 C 8.832031 -15.328125 9.660156 -15.203125 10.328125 -14.953125 C 10.992188 -14.710938 11.625 -14.347656 12.21875 -13.859375 L 11.15625 -12.625 C 10.6875 -13.03125 10.1875 -13.316406 9.65625 -13.484375 C 9.125 -13.660156 8.566406 -13.75 7.984375 -13.75 C 7.160156 -13.75 6.394531 -13.550781 5.6875 -13.15625 C 4.988281 -12.769531 4.425781 -12.125 4 -11.21875 C 3.570312 -10.3125 3.359375 -9.085938 3.359375 -7.546875 C 3.359375 -6.054688 3.5625 -4.859375 3.96875 -3.953125 C 4.375 -3.046875 4.925781 -2.390625 5.625 -1.984375 C 6.320312 -1.578125 7.097656 -1.375 7.953125 -1.375 C 8.796875 -1.375 9.488281 -1.5 10.03125 -1.75 C 10.570312 -2.007812 11.046875 -2.304688 11.453125 -2.640625 L 12.4375 -1.390625 C 11.976562 -0.941406 11.378906 -0.554688 10.640625 -0.234375 C 9.898438 0.0859375 8.992188 0.25 7.921875 0.25 C 6.703125 0.25 5.597656 -0.046875 4.609375 -0.640625 C 3.617188 -1.242188 2.832031 -2.125 2.25 -3.28125 C 1.675781 -4.4375 1.390625 -5.859375 1.390625 -7.546875 C 1.390625 -9.242188 1.679688 -10.671875 2.265625 -11.828125 C 2.859375 -12.984375 3.644531 -13.851562 4.625 -14.4375 C 5.613281 -15.03125 6.6875 -15.328125 7.84375 -15.328125 Z M 7.84375 -15.328125 "/></g></g></g><g fill="#0a0a0a" fill-opacity="1"><g transform="translate(469.887089, 21.825847)"><g><path d="M 7.484375 -13.453125 L 7.484375 0 L 5.59375 0 L 5.59375 -13.453125 L 0.875 -13.453125 L 0.875 -15.09375 L 12.265625 -15.09375 L 12.0625 -13.453125 Z M 7.484375 -13.453125 "/></g></g></g><g fill="#0a0a0a" fill-opacity="1"><g transform="translate(494.548798, 21.825847)"><g><path d="M 10.890625 -15.09375 L 10.890625 -13.5625 L 7.546875 -13.5625 L 7.546875 -1.53125 L 10.890625 -1.53125 L 10.890625 0 L 2.265625 0 L 2.265625 -1.53125 L 5.609375 -1.53125 L 5.609375 -13.5625 L 2.265625 -13.5625 L 2.265625 -15.09375 Z M 10.890625 -15.09375 "/></g></g></g><g fill="#0a0a0a" fill-opacity="1"><g transform="translate(519.210537, 21.825847)"><g><path d="M 6.625 -2.15625 L 10.703125 -15.09375 L 12.609375 -15.09375 L 7.5625 0 L 5.59375 0 L 0.53125 -15.09375 L 2.59375 -15.09375 Z M 6.625 -2.15625 "/></g></g></g><g fill="#0a0a0a" fill-opacity="1"><g transform="translate(543.872246, 21.825847)"><g><path d="M 4.65625 -13.53125 L 4.65625 -8.453125 L 10.25 -8.453125 L 10.25 -6.890625 L 4.65625 -6.890625 L 4.65625 -1.53125 L 11.515625 -1.53125 L 11.515625 0 L 2.75 0 L 2.75 -15.09375 L 11.328125 -15.09375 L 11.109375 -13.53125 Z M 4.65625 -13.53125 "/></g></g></g><g fill="#0a0a0a" fill-opacity="1"><g transform="translate(568.533956, 21.825847)"><g/></g></g><g fill="#0a0a0a" fill-opacity="1"><g transform="translate(593.195665, 21.825847)"><g><path d="M 4.65625 -13.53125 L 4.65625 -8.453125 L 10.25 -8.453125 L 10.25 -6.890625 L 4.65625 -6.890625 L 4.65625 -1.53125 L 11.515625 -1.53125 L 11.515625 0 L 2.75 0 L 2.75 -15.09375 L 11.328125 -15.09375 L 11.109375 -13.53125 Z M 4.65625 -13.53125 "/></g></g></g><g fill="#0a0a0a" fill-opacity="1"><g transform="translate(617.857374, 21.825847)"><g><path d="M 1.078125 -15.09375 L 3.265625 -15.09375 L 6.578125 -9.296875 L 9.890625 -15.09375 L 11.953125 -15.09375 L 7.671875 -8.140625 L 12.46875 0 L 10.296875 0 L 6.53125 -6.8125 L 2.734375 0 L 0.671875 0 L 5.421875 -8.046875 Z M 1.078125 -15.09375 "/></g></g></g><g fill="#0a0a0a" fill-opacity="1"><g transform="translate(642.519083, 21.825847)"><g><path d="M 10.171875 -10.4375 C 10.171875 -11.21875 10.015625 -11.835938 9.703125 -12.296875 C 9.398438 -12.753906 8.984375 -13.082031 8.453125 -13.28125 C 7.921875 -13.476562 7.3125 -13.578125 6.625 -13.578125 L 4.4375 -13.578125 L 4.4375 -7.140625 L 6.546875 -7.140625 C 7.253906 -7.140625 7.878906 -7.234375 8.421875 -7.421875 C 8.960938 -7.617188 9.390625 -7.957031 9.703125 -8.4375 C 10.015625 -8.914062 10.171875 -9.582031 10.171875 -10.4375 Z M 12.203125 -10.453125 C 12.203125 -9.273438 11.953125 -8.332031 11.453125 -7.625 C 10.953125 -6.914062 10.265625 -6.398438 9.390625 -6.078125 C 8.515625 -5.753906 7.507812 -5.59375 6.375 -5.59375 L 4.4375 -5.59375 L 4.4375 0 L 2.53125 0 L 2.53125 -15.09375 L 6.390625 -15.09375 C 8.191406 -15.09375 9.609375 -14.710938 10.640625 -13.953125 C 11.679688 -13.203125 12.203125 -12.035156 12.203125 -10.453125 Z M 12.203125 -10.453125 "/></g></g></g><g fill="#0a0a0a" fill-opacity="1"><g transform="translate(667.180792, 21.825847)"><g><path d="M 4.65625 -13.53125 L 4.65625 -8.453125 L 10.25 -8.453125 L 10.25 -6.890625 L 4.65625 -6.890625 L 4.65625 -1.53125 L 11.515625 -1.53125 L 11.515625 0 L 2.75 0 L 2.75 -15.09375 L 11.328125 -15.09375 L 11.109375 -13.53125 Z M 4.65625 -13.53125 "/></g></g></g><g fill="#0a0a0a" fill-opacity="1"><g transform="translate(691.842562, 21.825847)"><g><path d="M 11.78125 -10.859375 C 11.78125 -10.109375 11.617188 -9.453125 11.296875 -8.890625 C 10.972656 -8.328125 10.53125 -7.863281 9.96875 -7.5 C 9.414062 -7.132812 8.789062 -6.867188 8.09375 -6.703125 L 12.578125 0 L 10.296875 0 L 6.171875 -6.484375 L 4.125 -6.484375 L 4.125 0 L 2.21875 0 L 2.21875 -15.09375 L 6.109375 -15.09375 C 7.972656 -15.09375 9.382812 -14.734375 10.34375 -14.015625 C 11.300781 -13.304688 11.78125 -12.253906 11.78125 -10.859375 Z M 9.75 -10.859375 C 9.75 -11.828125 9.46875 -12.519531 8.90625 -12.9375 C 8.351562 -13.363281 7.492188 -13.578125 6.328125 -13.578125 L 4.125 -13.578125 L 4.125 -7.96875 L 6.328125 -7.96875 C 7.410156 -7.96875 8.25 -8.1875 8.84375 -8.625 C 9.445312 -9.070312 9.75 -9.816406 9.75 -10.859375 Z M 9.75 -10.859375 "/></g></g></g><g fill="#0a0a0a" fill-opacity="1"><g transform="translate(716.504271, 21.825847)"><g><path d="M 10.890625 -15.09375 L 10.890625 -13.5625 L 7.546875 -13.5625 L 7.546875 -1.53125 L 10.890625 -1.53125 L 10.890625 0 L 2.265625 0 L 2.265625 -1.53125 L 5.609375 -1.53125 L 5.609375 -13.5625 L 2.265625 -13.5625 L 2.265625 -15.09375 Z M 10.890625 -15.09375 "/></g></g></g><g fill="#0a0a0a" fill-opacity="1"><g transform="translate(741.16598, 21.825847)"><g><path d="M 4.65625 -13.53125 L 4.65625 -8.453125 L 10.25 -8.453125 L 10.25 -6.890625 L 4.65625 -6.890625 L 4.65625 -1.53125 L 11.515625 -1.53125 L 11.515625 0 L 2.75 0 L 2.75 -15.09375 L 11.328125 -15.09375 L 11.109375 -13.53125 Z M 4.65625 -13.53125 "/></g></g></g><g fill="#0a0a0a" fill-opacity="1"><g transform="translate(765.827689, 21.825847)"><g><path d="M 8.65625 0 L 3.34375 -13.28125 C 3.351562 -13.101562 3.367188 -12.816406 3.390625 -12.421875 C 3.421875 -12.035156 3.453125 -11.570312 3.484375 -11.03125 C 3.515625 -10.5 3.539062 -9.929688 3.5625 -9.328125 C 3.582031 -8.734375 3.59375 -8.144531 3.59375 -7.5625 L 3.59375 0 L 1.828125 0 L 1.828125 -15.09375 L 4.40625 -15.09375 L 9.8125 -1.765625 C 9.800781 -1.972656 9.773438 -2.359375 9.734375 -2.921875 C 9.691406 -3.492188 9.648438 -4.179688 9.609375 -4.984375 C 9.578125 -5.785156 9.5625 -6.640625 9.5625 -7.546875 L 9.5625 -15.09375 L 11.328125 -15.09375 L 11.328125 0 Z M 8.65625 0 "/></g></g></g><g fill="#0a0a0a" fill-opacity="1"><g transform="translate(790.489398, 21.825847)"><g><path d="M 7.84375 -15.328125 C 8.832031 -15.328125 9.660156 -15.203125 10.328125 -14.953125 C 10.992188 -14.710938 11.625 -14.347656 12.21875 -13.859375 L 11.15625 -12.625 C 10.6875 -13.03125 10.1875 -13.316406 9.65625 -13.484375 C 9.125 -13.660156 8.566406 -13.75 7.984375 -13.75 C 7.160156 -13.75 6.394531 -13.550781 5.6875 -13.15625 C 4.988281 -12.769531 4.425781 -12.125 4 -11.21875 C 3.570312 -10.3125 3.359375 -9.085938 3.359375 -7.546875 C 3.359375 -6.054688 3.5625 -4.859375 3.96875 -3.953125 C 4.375 -3.046875 4.925781 -2.390625 5.625 -1.984375 C 6.320312 -1.578125 7.097656 -1.375 7.953125 -1.375 C 8.796875 -1.375 9.488281 -1.5 10.03125 -1.75 C 10.570312 -2.007812 11.046875 -2.304688 11.453125 -2.640625 L 12.4375 -1.390625 C 11.976562 -0.941406 11.378906 -0.554688 10.640625 -0.234375 C 9.898438 0.0859375 8.992188 0.25 7.921875 0.25 C 6.703125 0.25 5.597656 -0.046875 4.609375 -0.640625 C 3.617188 -1.242188 2.832031 -2.125 2.25 -3.28125 C 1.675781 -4.4375 1.390625 -5.859375 1.390625 -7.546875 C 1.390625 -9.242188 1.679688 -10.671875 2.265625 -11.828125 C 2.859375 -12.984375 3.644531 -13.851562 4.625 -14.4375 C 5.613281 -15.03125 6.6875 -15.328125 7.84375 -15.328125 Z M 7.84375 -15.328125 "/></g></g></g><g fill="#0a0a0a" fill-opacity="1"><g transform="translate(815.151107, 21.825847)"><g><path d="M 4.65625 -13.53125 L 4.65625 -8.453125 L 10.25 -8.453125 L 10.25 -6.890625 L 4.65625 -6.890625 L 4.65625 -1.53125 L 11.515625 -1.53125 L 11.515625 0 L 2.75 0 L 2.75 -15.09375 L 11.328125 -15.09375 L 11.109375 -13.53125 Z M 4.65625 -13.53125 "/></g></g></g><g fill="#0a0a0a" fill-opacity="1"><g transform="translate(839.812816, 21.825847)"><g><path d="M 11.765625 -4.171875 C 11.765625 -3.304688 11.546875 -2.539062 11.109375 -1.875 C 10.679688 -1.207031 10.054688 -0.6875 9.234375 -0.3125 C 8.421875 0.0625 7.425781 0.25 6.25 0.25 C 5.144531 0.25 4.144531 0.0820312 3.25 -0.25 C 2.351562 -0.582031 1.585938 -1.054688 0.953125 -1.671875 L 2.078125 -2.953125 C 2.609375 -2.460938 3.210938 -2.070312 3.890625 -1.78125 C 4.566406 -1.488281 5.363281 -1.34375 6.28125 -1.34375 C 6.894531 -1.34375 7.46875 -1.441406 8 -1.640625 C 8.53125 -1.847656 8.957031 -2.15625 9.28125 -2.5625 C 9.613281 -2.976562 9.78125 -3.503906 9.78125 -4.140625 C 9.78125 -4.628906 9.6875 -5.046875 9.5 -5.390625 C 9.3125 -5.734375 8.972656 -6.035156 8.484375 -6.296875 C 8.003906 -6.566406 7.335938 -6.832031 6.484375 -7.09375 C 5.484375 -7.382812 4.617188 -7.710938 3.890625 -8.078125 C 3.171875 -8.453125 2.609375 -8.910156 2.203125 -9.453125 C 1.804688 -9.992188 1.609375 -10.660156 1.609375 -11.453125 C 1.609375 -12.203125 1.816406 -12.867188 2.234375 -13.453125 C 2.648438 -14.046875 3.222656 -14.503906 3.953125 -14.828125 C 4.691406 -15.160156 5.539062 -15.328125 6.5 -15.328125 C 7.539062 -15.328125 8.445312 -15.179688 9.21875 -14.890625 C 9.988281 -14.597656 10.691406 -14.171875 11.328125 -13.609375 L 10.203125 -12.375 C 9.660156 -12.851562 9.078125 -13.203125 8.453125 -13.421875 C 7.835938 -13.640625 7.207031 -13.75 6.5625 -13.75 C 6.019531 -13.75 5.519531 -13.664062 5.0625 -13.5 C 4.601562 -13.332031 4.234375 -13.085938 3.953125 -12.765625 C 3.679688 -12.441406 3.546875 -12.023438 3.546875 -11.515625 C 3.546875 -11.085938 3.660156 -10.71875 3.890625 -10.40625 C 4.128906 -10.09375 4.523438 -9.804688 5.078125 -9.546875 C 5.640625 -9.285156 6.398438 -9.007812 7.359375 -8.71875 C 8.140625 -8.5 8.863281 -8.21875 9.53125 -7.875 C 10.195312 -7.53125 10.734375 -7.066406 11.140625 -6.484375 C 11.554688 -5.910156 11.765625 -5.140625 11.765625 -4.171875 Z M 11.765625 -4.171875 "/></g></g></g></g></g></svg>